<?xml version="1.0" standalone="no"?>
<!DOCTYPE svg PUBLIC "-//W3C//DTD SVG 20010904//EN"
 "http://www.w3.org/TR/2001/REC-SVG-20010904/DTD/svg10.dtd">
<svg version="1.0" xmlns="http://www.w3.org/2000/svg"
 width="512.000000pt" height="512.000000pt" viewBox="0 0 512.000000 512.000000"
 preserveAspectRatio="xMidYMid meet">

<g transform="translate(0.000000,512.000000) scale(0.100000,-0.100000)"
fill="#000000" stroke="none">
<path d="M3754 4901 c-83 -13 -178 -49 -246 -93 -35 -22 -145 -121 -245 -220
-174 -173 -182 -180 -213 -173 -17 4 -54 1 -83 -6 -48 -11 -64 -24 -220 -178
-93 -91 -177 -183 -188 -203 -13 -25 -19 -58 -19 -100 l0 -63 -1014 -1015
c-1087 -1089 -1061 -1060 -1100 -1200 -12 -45 -83 -465 -200 -1197 -17 -108
-11 -144 35 -191 61 -63 11 -66 804 63 121 20 290 47 375 61 85 13 180 32 210
40 140 40 102 5 1195 1096 l1020 1018 63 0 c42 0 75 6 100 19 20 11 112 95
203 188 154 156 167 172 178 220 7 29 10 66 6 83 -7 31 0 39 173 213 198 201
245 265 286 388 23 69 28 100 27 184 0 113 -16 183 -63 282 -29 61 -64 100
-342 379 -274 273 -319 314 -376 342 -116 55 -257 80 -366 63z m178 -162 c116
-24 166 -62 422 -318 l238 -238 5 -84 c4 -58 0 -105 -11 -153 -30 -125 -64
-175 -258 -371 l-178 -180 -462 463 -463 462 180 179 c187 185 224 212 330
237 65 16 131 17 197 3z m-280 -1076 c335 -335 611 -616 614 -625 9 -30 -22
-71 -163 -210 -125 -123 -143 -138 -174 -138 -31 0 -75 41 -636 603 -566 566
-603 604 -603 637 0 32 14 49 153 187 112 112 160 153 178 153 18 0 167 -143
631 -607z m-1477 -1383 c-528 -528 -962 -960 -965 -960 -3 0 -11 22 -17 50
-36 151 -169 313 -320 387 -44 23 -100 44 -123 48 l-43 7 964 964 964 964 250
-250 250 -250 -960 -960z m1318 602 l247 -247 -964 -964 -964 -964 -7 43 c-4
23 -25 79 -48 123 -74 149 -231 280 -383 319 -27 7 -51 14 -54 15 -4 4 1912
1923 1920 1923 3 0 116 -111 253 -248z m-2688 -1261 c176 -87 280 -281 246
-457 -21 -104 10 -134 116 -113 228 45 476 -150 491 -386 4 -70 4 -71 -24 -84
-16 -7 -191 -39 -389 -72 -198 -32 -372 -61 -386 -63 -22 -4 -51 21 -222 192
l-196 197 63 385 c35 212 70 398 77 414 13 28 14 28 86 24 55 -4 88 -13 138
-37z"/>
</g>
</svg>
